#define joystick_width 48
#define joystick_height 8
static unsigned char joystick_bits[] = {
   0x00, 0x00, 0x00, 0x00, 0x00, 0x00, 0x00, 0x80, 0x00, 0x80, 0x10, 0x00,
   0x12, 0x00, 0x00, 0x10, 0x10, 0x06, 0xd2, 0x8e, 0xae, 0xb6, 0x56, 0x08,
   0x52, 0x8a, 0xaa, 0x92, 0x32, 0x04, 0x92, 0x82, 0x4a, 0x94, 0x32, 0x02,
   0xcc, 0x8e, 0x4e, 0xb6, 0x56, 0x0e, 0x00, 0x40, 0x40, 0x00, 0x00, 0x00 };
