#define player_fg_width 24
#define player_fg_height 21
static unsigned char player_fg_bits[] = {
   0x00, 0x00, 0x00, 0xe0, 0x01, 0x00, 0xf0, 0x03, 0x00, 0xf0, 0x03, 0x00,
   0xe0, 0x01, 0x00, 0xfc, 0x0f, 0x00, 0xfc, 0x0f, 0x00, 0xf6, 0x1b, 0x00,
   0xf6, 0x1b, 0x00, 0xf6, 0x1b, 0x00, 0x36, 0x1b, 0x00, 0x30, 0x03, 0x00,
   0x30, 0x03, 0x00, 0x30, 0x03, 0x00, 0x38, 0x07, 0x00, 0x00, 0x00, 0x00,
   0x00, 0x00, 0x00, 0x00, 0x00, 0x00, 0x00, 0x00, 0x00, 0x00, 0x00, 0x00,
   0x00, 0x00, 0x00 };
