#define player_fg_width 24
#define player_fg_height 21
static unsigned char player_fg_bits[] = {
   0x00, 0x00, 0x00, 0x00, 0x3c, 0x00, 0x00, 0x7e, 0x00, 0x00, 0x7e, 0x00,
   0x00, 0x3c, 0x00, 0x80, 0xff, 0x01, 0x80, 0xff, 0x01, 0xc0, 0x7e, 0x03,
   0xc0, 0x7e, 0x03, 0xc0, 0x7e, 0x03, 0xc0, 0x66, 0x03, 0x00, 0x66, 0x00,
   0x00, 0x66, 0x00, 0x00, 0x66, 0x00, 0x00, 0xe7, 0x00, 0x00, 0x00, 0x00,
   0x00, 0x00, 0x00, 0x00, 0x00, 0x00, 0x00, 0x00, 0x00, 0x00, 0x00, 0x00,
   0x00, 0x00, 0x00 };
