#define player_bg_width 24
#define player_bg_height 21
static unsigned char player_bg_bits[] = {
   0x00, 0x7e, 0x00, 0x00, 0xff, 0x00, 0x00, 0xff, 0x00, 0x00, 0xff, 0x00,
   0xc0, 0xff, 0x03, 0xc0, 0xff, 0x03, 0xe0, 0xff, 0x07, 0xe0, 0xff, 0x07,
   0xe0, 0xff, 0x07, 0xe0, 0xff, 0x07, 0xe0, 0xff, 0x07, 0xe0, 0xff, 0x07,
   0x00, 0xff, 0x00, 0x80, 0xff, 0x01, 0x80, 0xff, 0x01, 0x80, 0xff, 0x01,
   0x00, 0x00, 0x00, 0x00, 0x00, 0x00, 0x00, 0x00, 0x00, 0x00, 0x00, 0x00,
   0x00, 0x00, 0x00 };
