#define player_bg_width 24
#define player_bg_height 21
static unsigned char player_bg_bits[] = {
   0xf0, 0x03, 0x00, 0xf8, 0x07, 0x00, 0xf8, 0x07, 0x00, 0xf8, 0x07, 0x00,
   0xfe, 0x1f, 0x00, 0xfe, 0x1f, 0x00, 0xff, 0x3f, 0x00, 0xff, 0x3f, 0x00,
   0xff, 0x3f, 0x00, 0xff, 0x3f, 0x00, 0xff, 0x3f, 0x00, 0xff, 0x3f, 0x00,
   0xf8, 0x07, 0x00, 0xfc, 0x0f, 0x00, 0xfc, 0x0f, 0x00, 0xfc, 0x0f, 0x00,
   0x00, 0x00, 0x00, 0x00, 0x00, 0x00, 0x00, 0x00, 0x00, 0x00, 0x00, 0x00,
   0x00, 0x00, 0x00 };
