#define text_width 1536
#define text_height 8
static unsigned char text_bits[] = {
   0xbc, 0x01, 0x00, 0x00, 0x00, 0x00, 0xc0, 0x0d, 0x00, 0x00, 0x19, 0x00,
   0x00, 0xbf, 0x01, 0xc0, 0xdb, 0x01, 0x00, 0x00, 0x00, 0x00, 0x07, 0x00,
   0x00, 0x38, 0x00, 0x00, 0xc0, 0x00, 0xef, 0x00, 0x00, 0x00, 0x40, 0x20,
   0x03, 0x80, 0xb7, 0x03, 0x00, 0x00, 0x00, 0x60, 0x00, 0xef, 0x00, 0x00,
   0x0e, 0xcc, 0x60, 0x00, 0x02, 0x80, 0x0c, 0x00, 0x00, 0x46, 0x06, 0x77,
   0x00, 0x00, 0x00, 0x18, 0x18, 0x18, 0x3c, 0x3c, 0x30, 0x3e, 0x38, 0x7e,
   0x38, 0x18, 0xce, 0x03, 0x00, 0x00, 0x31, 0xfc, 0xff, 0x7f, 0x3e, 0x03,
   0x00, 0x00, 0x00, 0x60, 0x00, 0xc1, 0xfc, 0xff, 0xff, 0xff, 0x9f, 0xff,
   0x3f, 0x00, 0x00, 0xef, 0x01, 0x00, 0x07, 0x1f, 0x00, 0x00, 0x9f, 0x19,
   0x00, 0xe7, 0x80, 0xe1, 0xc0, 0x01, 0x3f, 0x00, 0x00, 0x00, 0x00, 0xef,
   0x01, 0x00, 0x20, 0x00, 0x00, 0x06, 0x00, 0x00, 0x00, 0x00, 0x00, 0x00,
   0x00, 0x00, 0x00, 0x00, 0x00, 0x00, 0x00, 0x00, 0x00, 0x00, 0x00, 0x00,
   0x00, 0x00, 0x00, 0x00, 0x00, 0x00, 0x00, 0x00, 0x00, 0x00, 0x00, 0x00,
   0x00, 0x00, 0x00, 0x00, 0x00, 0x00, 0x00, 0x00, 0x00, 0x00, 0x00, 0x00,
   0x00, 0x00, 0x00, 0x00, 0x00, 0x00, 0x00, 0x00, 0x00, 0x00, 0x00, 0x00,
   0x00, 0x00, 0x00, 0x00, 0x00, 0x00, 0x00, 0x00, 0x00, 0x00, 0x00, 0xff,
   0xa6, 0x01, 0x00, 0x00, 0x00, 0x00, 0x80, 0x01, 0x00, 0x80, 0x01, 0x00,
   0x00, 0xad, 0x01, 0x80, 0x99, 0x00, 0x00, 0x00, 0x00, 0x80, 0x01, 0x00,
   0x00, 0x30, 0x00, 0x00, 0xc0, 0x0f, 0x46, 0x00, 0x00, 0x00, 0x60, 0x30,
   0x03, 0x00, 0x33, 0x01, 0x00, 0x00, 0x00, 0x60, 0x00, 0x46, 0x00, 0x00,
   0x03, 0xcc, 0x00, 0x00, 0x03, 0xc0, 0x0c, 0x00, 0x00, 0x60, 0x06, 0x26,
   0x00, 0x00, 0x00, 0x18, 0x24, 0x1c, 0x66, 0x66, 0x38, 0x26, 0x0c, 0x62,
   0x64, 0x66, 0xcc, 0x01, 0x00, 0x00, 0x33, 0xfe, 0xff, 0x7f, 0x6c, 0x03,
   0x00, 0x00, 0x00, 0x00, 0x00, 0x93, 0xfc, 0xff, 0xff, 0xff, 0xff, 0xff,
   0x26, 0x00, 0x00, 0xc6, 0x00, 0x00, 0x06, 0x36, 0x00, 0x00, 0xb6, 0x01,
   0x00, 0x36, 0x80, 0xc1, 0x60, 0x03, 0x26, 0x00, 0x00, 0x00, 0x00, 0xc6,
   0x00, 0x00, 0x30, 0x00, 0x00, 0x06, 0x00, 0x00, 0x00, 0x00, 0x00, 0x00,
   0x00, 0x00, 0x00, 0x00, 0x00, 0x00, 0x00, 0x00, 0x00, 0x00, 0x00, 0x00,
   0x00, 0x00, 0x00, 0x00, 0x00, 0x00, 0x00, 0x00, 0x00, 0x00, 0x00, 0x00,
   0x00, 0x00, 0x00, 0x00, 0x00, 0x00, 0x00, 0x00, 0x00, 0x00, 0x00, 0x00,
   0x00, 0x00, 0x00, 0x00, 0x00, 0x00, 0x00, 0x00, 0x00, 0x00, 0x00, 0x00,
   0x00, 0x00, 0x00, 0x00, 0x00, 0x00, 0x00, 0x00, 0x00, 0x00, 0x00, 0xff,
   0x83, 0x9f, 0xc7, 0xe3, 0x18, 0x38, 0xe0, 0xcd, 0x63, 0x98, 0x1b, 0xcf,
   0x0f, 0x8c, 0x1f, 0x83, 0xd5, 0x76, 0xff, 0x7e, 0x3b, 0x87, 0xf3, 0xec,
   0x7e, 0x3c, 0x6e, 0x9e, 0xdd, 0x1e, 0x2c, 0xcf, 0x0e, 0x8e, 0xe7, 0x70,
   0x3f, 0x06, 0xab, 0xed, 0xfe, 0xfd, 0x76, 0x6e, 0x30, 0x2c, 0xcf, 0x0e,
   0xc7, 0xcc, 0x60, 0x7e, 0xe7, 0xc1, 0xfd, 0x18, 0xfc, 0xe6, 0x06, 0x2e,
   0x9e, 0xf7, 0xcf, 0x19, 0x66, 0x18, 0x60, 0x30, 0x34, 0x06, 0x3e, 0x22,
   0x26, 0x66, 0xdc, 0x61, 0x7e, 0x3b, 0x23, 0x9e, 0x81, 0x44, 0x6c, 0xe3,
   0x6e, 0x70, 0x1c, 0x67, 0x7e, 0x93, 0x1c, 0x91, 0x8f, 0xe3, 0x98, 0x81,
   0x16, 0xc7, 0x6f, 0xc6, 0x38, 0x8f, 0x07, 0xb6, 0xe7, 0x01, 0x96, 0xd9,
   0x8f, 0x77, 0x9e, 0xf1, 0x60, 0x03, 0xd6, 0xed, 0xf7, 0x18, 0xe7, 0xc6,
   0xbc, 0xdb, 0x70, 0x1e, 0xfc, 0xc6, 0xdd, 0x00, 0x00, 0x00, 0x00, 0x00,
   0x00, 0x00, 0x00, 0x00, 0x00, 0x00, 0x00, 0x00, 0x00, 0x00, 0x00, 0x00,
   0x00, 0x00, 0x00, 0x00, 0x00, 0x00, 0x00, 0x00, 0x00, 0x00, 0x00, 0x00,
   0x00, 0x00, 0x00, 0x00, 0x00, 0x00, 0x00, 0x00, 0x00, 0x00, 0x00, 0x00,
   0x00, 0x00, 0x00, 0x00, 0x00, 0x00, 0x00, 0x00, 0x00, 0x00, 0x00, 0x00,
   0x00, 0x00, 0x00, 0x00, 0x00, 0x00, 0x00, 0x00, 0x00, 0x00, 0x00, 0xff,
   0x83, 0xd9, 0x6c, 0xb6, 0x36, 0x70, 0x98, 0xcd, 0xda, 0xb6, 0x99, 0xd9,
   0x0c, 0x8c, 0xd9, 0x06, 0x57, 0x66, 0xdb, 0x66, 0xb3, 0x85, 0x99, 0xcd,
   0x66, 0x33, 0x2c, 0xb3, 0x99, 0xfc, 0x9c, 0xd9, 0x0c, 0xdb, 0x6c, 0x30,
   0xb3, 0x0d, 0xae, 0xcc, 0xb6, 0xcd, 0x66, 0x4b, 0xff, 0x9c, 0xd9, 0x0c,
   0xb3, 0xcd, 0x60, 0x66, 0x33, 0xc3, 0xcc, 0x36, 0xcc, 0x66, 0x04, 0x2a,
   0xb3, 0xb5, 0x8d, 0x1b, 0x66, 0x18, 0x30, 0x18, 0x32, 0x3e, 0x66, 0x30,
   0x38, 0x66, 0xb4, 0xd9, 0x66, 0x33, 0x4b, 0x26, 0x99, 0x4c, 0x6c, 0xc3,
   0x2d, 0xe0, 0x36, 0x6e, 0x66, 0x93, 0x3c, 0xd2, 0x1f, 0xc9, 0x91, 0x99,
   0x1e, 0x6e, 0x2d, 0xfe, 0x70, 0x6b, 0x06, 0xb6, 0x35, 0x03, 0x9e, 0xd9,
   0x6c, 0x36, 0xb3, 0xcd, 0xe0, 0x0d, 0x9e, 0x65, 0xb6, 0xb6, 0xb5, 0xfe,
   0x66, 0x59, 0x30, 0x33, 0xcc, 0x86, 0x5b, 0x00, 0x00, 0x00, 0x00, 0x00,
   0x00, 0x00, 0x00, 0x00, 0x00, 0x00, 0x00, 0x00, 0x00, 0x00, 0x00, 0x00,
   0x00, 0x00, 0x00, 0x00, 0x00, 0x00, 0x00, 0x00, 0x00, 0x00, 0x00, 0x00,
   0x00, 0x00, 0x00, 0x00, 0x00, 0x00, 0x00, 0x00, 0x00, 0x00, 0x00, 0x00,
   0x00, 0x00, 0x00, 0x00, 0x00, 0x00, 0x00, 0x00, 0x00, 0x00, 0x00, 0x00,
   0x00, 0x00, 0x00, 0x00, 0x00, 0x00, 0x00, 0x00, 0x00, 0x00, 0x00, 0xff,
   0x83, 0xd9, 0x6c, 0x66, 0x3e, 0x6c, 0x98, 0xcd, 0xf8, 0x86, 0x99, 0xd9,
   0x0c, 0x8c, 0xd9, 0x07, 0x77, 0x66, 0xdb, 0x66, 0x33, 0x83, 0x99, 0xcd,
   0x66, 0x33, 0x2c, 0xb3, 0x19, 0x1e, 0x98, 0xd9, 0x0c, 0xce, 0x6c, 0x30,
   0xb3, 0x0f, 0xee, 0xcc, 0xb6, 0xcd, 0x66, 0x06, 0x30, 0x98, 0xd9, 0x0c,
   0xf3, 0xcd, 0x60, 0x66, 0x33, 0xc3, 0xcc, 0x3e, 0xcc, 0x66, 0x00, 0x3a,
   0xb3, 0xb1, 0x6d, 0x1b, 0x66, 0x18, 0x0c, 0x60, 0x7e, 0x60, 0x66, 0x18,
   0x66, 0x7c, 0xb4, 0xf9, 0x66, 0x33, 0x4b, 0x06, 0x99, 0x4c, 0x3c, 0xb3,
   0x2d, 0xd8, 0x9c, 0x6d, 0x66, 0xc3, 0x4c, 0xd2, 0x27, 0x63, 0x92, 0x99,
   0x96, 0xcd, 0x2c, 0xc6, 0x6c, 0x63, 0x06, 0x9e, 0x31, 0x03, 0xb6, 0xd9,
   0x6c, 0x36, 0xb3, 0xcd, 0xb0, 0x05, 0x16, 0x63, 0x36, 0x3e, 0x63, 0xc6,
   0x66, 0x77, 0x30, 0x33, 0xcc, 0x66, 0x5b, 0x00, 0x00, 0x00, 0x00, 0x00,
   0x00, 0x00, 0x00, 0x00, 0x00, 0x00, 0x00, 0x00, 0x00, 0x00, 0x00, 0x00,
   0x00, 0x00, 0x00, 0x00, 0x00, 0x00, 0x00, 0x00, 0x00, 0x00, 0x00, 0x00,
   0x00, 0x00, 0x00, 0x00, 0x00, 0x00, 0x00, 0x00, 0x00, 0x00, 0x00, 0x00,
   0x00, 0x00, 0x00, 0x00, 0x00, 0x00, 0x00, 0x00, 0x00, 0x00, 0x00, 0x00,
   0x00, 0x00, 0x00, 0x00, 0x00, 0x00, 0x00, 0x00, 0x00, 0x00, 0x00, 0xff,
   0xa6, 0xd9, 0x6c, 0xd6, 0x06, 0x6c, 0xb8, 0xcd, 0x18, 0x86, 0x99, 0xd9,
   0x0c, 0x8c, 0xd9, 0x00, 0x63, 0x66, 0xdb, 0x3e, 0xb3, 0x86, 0x99, 0xcd,
   0x66, 0x37, 0x18, 0xb3, 0xd9, 0x0f, 0x98, 0xd9, 0x0c, 0xde, 0x6c, 0x30,
   0xb3, 0x01, 0xc6, 0xcc, 0xb6, 0x3d, 0x66, 0x6d, 0x00, 0x98, 0xd9, 0x0c,
   0x33, 0xcc, 0x60, 0x66, 0x33, 0xc3, 0xcc, 0x06, 0x3c, 0x66, 0x06, 0x32,
   0xb3, 0xb1, 0x6d, 0x1b, 0x24, 0x18, 0x46, 0x66, 0x30, 0x66, 0x64, 0x08,
   0x66, 0x30, 0xb4, 0x19, 0x66, 0x33, 0x4b, 0xe6, 0x99, 0x4c, 0x0c, 0xb3,
   0x19, 0xd8, 0xbc, 0x6d, 0x66, 0xf3, 0x4c, 0xe6, 0x27, 0x43, 0x92, 0x99,
   0xa6, 0xad, 0x19, 0xc6, 0x6c, 0xe3, 0x06, 0x86, 0x31, 0x03, 0xb6, 0xd9,
   0xec, 0x36, 0xb3, 0xdd, 0x70, 0x07, 0xa6, 0xe6, 0x31, 0x86, 0xd6, 0xc6,
   0x66, 0x77, 0x30, 0x33, 0x3c, 0x66, 0x33, 0x00, 0x00, 0x00, 0x00, 0x00,
   0x00, 0x00, 0x00, 0x00, 0x00, 0x00, 0x00, 0x00, 0x00, 0x00, 0x00, 0x00,
   0x00, 0x00, 0x00, 0x00, 0x00, 0x00, 0x00, 0x00, 0x00, 0x00, 0x00, 0x00,
   0x00, 0x00, 0x00, 0x00, 0x00, 0x00, 0x00, 0x00, 0x00, 0x00, 0x00, 0x00,
   0x00, 0x00, 0x00, 0x00, 0x00, 0x00, 0x00, 0x00, 0x00, 0x00, 0x00, 0x00,
   0x00, 0x00, 0x00, 0x00, 0x00, 0x00, 0x00, 0x00, 0x00, 0x00, 0x00, 0xff,
   0xbc, 0x9d, 0xc7, 0x73, 0x3c, 0x7c, 0xf0, 0xcd, 0xf1, 0xbc, 0x1b, 0xcf,
   0x0e, 0x9e, 0x9d, 0x07, 0x22, 0x7c, 0xdb, 0x06, 0xbe, 0x83, 0xf3, 0xf8,
   0x76, 0x3e, 0x1a, 0x1e, 0xdf, 0x00, 0x3c, 0x8f, 0x0f, 0x93, 0xe7, 0x70,
   0x3b, 0x0f, 0x44, 0xf8, 0xb6, 0x0d, 0x7c, 0x67, 0x00, 0x3c, 0x8f, 0x0f,
   0xe7, 0xcd, 0x60, 0x76, 0xe7, 0xc1, 0xed, 0x3c, 0x0c, 0xe6, 0x06, 0x37,
   0x9e, 0xb3, 0xed, 0x1b, 0x18, 0x3c, 0x7e, 0x3c, 0x30, 0x3e, 0x38, 0x0c,
   0x3c, 0x0c, 0xfe, 0xf3, 0x76, 0x3e, 0x01, 0x0c, 0x89, 0x41, 0x1e, 0xf3,
   0x0b, 0xf8, 0xa6, 0x6f, 0x76, 0xe1, 0x0c, 0xf4, 0x07, 0x59, 0x90, 0x89,
   0xbf, 0xef, 0x0a, 0xef, 0x7d, 0xc7, 0x07, 0x8f, 0xe3, 0x01, 0x9f, 0xd9,
   0xce, 0x77, 0x9e, 0xf9, 0xe0, 0x0c, 0xff, 0x6e, 0x70, 0xbc, 0x73, 0xef,
   0x3d, 0x22, 0x70, 0x1e, 0x0c, 0xe6, 0x17, 0x00, 0x00, 0x00, 0x00, 0x00,
   0x00, 0x00, 0x00, 0x00, 0x00, 0x00, 0x00, 0x00, 0x00, 0x00, 0x00, 0x00,
   0x00, 0x00, 0x00, 0x00, 0x00, 0x00, 0x00, 0x00, 0x00, 0x00, 0x00, 0x00,
   0x00, 0x00, 0x00, 0x00, 0x00, 0x00, 0x00, 0x00, 0x00, 0x00, 0x00, 0x00,
   0x00, 0x00, 0x00, 0x00, 0x00, 0x00, 0x00, 0x00, 0x00, 0x00, 0x00, 0x00,
   0x00, 0x00, 0x00, 0x00, 0x00, 0x00, 0x00, 0x00, 0x00, 0x00, 0x00, 0xff,
   0x00, 0x00, 0x00, 0x00, 0x00, 0x00, 0x00, 0x00, 0x00, 0x00, 0x00, 0x00,
   0x00, 0x00, 0x00, 0x00, 0x00, 0x00, 0x00, 0x0e, 0x00, 0x00, 0x00, 0x00,
   0x00, 0x00, 0x0e, 0x00, 0x00, 0x00, 0x00, 0x00, 0x00, 0x0e, 0x00, 0x00,
   0x00, 0x00, 0x00, 0x00, 0x00, 0x1c, 0x00, 0x00, 0x00, 0x00, 0x00, 0x00,
   0x00, 0x00, 0x00, 0x00, 0x00, 0x00, 0x00, 0x00, 0x1c, 0x00, 0x00, 0x00,
   0x00, 0x00, 0x00, 0x00, 0x00, 0x00, 0x00, 0x00, 0x00, 0x00, 0x00, 0x00,
   0x00, 0x00, 0x00, 0x00, 0x00, 0x00, 0xff, 0xff, 0xff, 0x7f, 0x00, 0x00,
   0x06, 0x00, 0x1c, 0x00, 0x00, 0xff, 0xff, 0xf9, 0xff, 0xe3, 0xff, 0xff,
   0x00, 0x00, 0x06, 0x00, 0x00, 0x00, 0x00, 0x00, 0x00, 0x00, 0x00, 0x00,
   0x00, 0x00, 0x00, 0x00, 0x00, 0x00, 0x00, 0xe0, 0x00, 0x00, 0x00, 0x00,
   0x00, 0x00, 0x00, 0x00, 0x1c, 0x00, 0x0c, 0x00, 0x00, 0x00, 0x00, 0x00,
   0x00, 0x00, 0x00, 0x00, 0x00, 0x00, 0x00, 0x00, 0x00, 0x00, 0x00, 0x00,
   0x00, 0x00, 0x00, 0x00, 0x00, 0x00, 0x00, 0x00, 0x00, 0x00, 0x00, 0x00,
   0x00, 0x00, 0x00, 0x00, 0x00, 0x00, 0x00, 0x00, 0x00, 0x00, 0x00, 0x00,
   0x00, 0x00, 0x00, 0x00, 0x00, 0x00, 0x00, 0x00, 0x00, 0x00, 0x00, 0x00,
   0x00, 0x00, 0x00, 0x00, 0x00, 0x00, 0x00, 0x00, 0x00, 0x00, 0x00, 0xff };
