#define wumpus_width 16
#define wumpus_height 16
static unsigned char wumpus_bits[] = {
   0xe0, 0x07, 0xf8, 0x1f, 0xfc, 0x3f, 0x9e, 0x79, 0xdf, 0xfb, 0xff, 0xff,
   0xff, 0xff, 0xbf, 0xfd, 0x1b, 0xd8, 0x1b, 0xd8, 0xb3, 0xcd, 0xf6, 0x6f,
   0xe6, 0x67, 0xcc, 0x33, 0x0e, 0x70, 0x1a, 0x58 };
