#define wumpus_width 16
#define wumpus_height 16
static unsigned char wumpus_bits[] = {
   0x1f, 0xf8, 0x07, 0xe0, 0x03, 0xc0, 0x61, 0x86, 0x20, 0x04, 0x00, 0x00,
   0x00, 0x00, 0x40, 0x02, 0xe4, 0x27, 0xe4, 0x27, 0x4c, 0x32, 0x09, 0x90,
   0x19, 0x98, 0x33, 0xcc, 0xf1, 0x8f, 0xe5, 0xa7 };
